<svg xmlns="http://www.w3.org/2000/svg" width="43.5" height="43.5" viewBox="0 0 43.5 43.5">
  <path id="icons8-behance" d="M9,4A5,5,0,0,0,4,9V41a5,5,0,0,0,5,5H41a5,5,0,0,0,5-5V9a5,5,0,0,0-5-5Zm3,14h6.73c.73,0,4.68-.05,4.68,3.57a2.963,2.963,0,0,1-1.9,2.859A3.435,3.435,0,0,1,24,28c0,3.83-4.39,4-4.98,4H12Zm17,0h7v2H29ZM15,20.43v3.281h3.221A1.789,1.789,0,0,0,20.119,22c0-1.47-1.9-1.57-2.189-1.57ZM32.73,21a4.982,4.982,0,0,1,5.119,3.76A10.576,10.576,0,0,1,38,27H30.1a2.688,2.688,0,0,0,2.791,2.83,2.758,2.758,0,0,0,1.549-.439,1.94,1.94,0,0,0,.771-.861H37.84a5.129,5.129,0,0,1-2.01,2.6A6,6,0,0,1,32.58,32a6.628,6.628,0,0,1-2.33-.44,6.861,6.861,0,0,1-1.7-1.15,5.118,5.118,0,0,1-1.08-1.74A5,5,0,0,1,27,26.5,5.353,5.353,0,0,1,32.73,21Zm0,2.029A2.626,2.626,0,0,0,30.1,25.34h4.961C34.9,24.62,34.25,23.029,32.73,23.029ZM15,25.711V29.57h3.352c.289,0,2.328-.089,2.328-1.859a2.051,2.051,0,0,0-2.328-2Z" transform="translate(-3.25 -3.25)" fill="none" stroke="#fff" stroke-width="1.5"/>
</svg>
