<svg xmlns="http://www.w3.org/2000/svg" width="42" height="42" viewBox="0 0 42 42">
  <path id="icons8-instagram" d="M15.409,3A12.424,12.424,0,0,0,3,15.409V32.591A12.424,12.424,0,0,0,15.409,45H32.591A12.424,12.424,0,0,0,45,32.591V15.409A12.424,12.424,0,0,0,32.591,3Zm0,1.909H32.591a10.486,10.486,0,0,1,10.5,10.5V32.591a10.486,10.486,0,0,1-10.5,10.5H15.409a10.486,10.486,0,0,1-10.5-10.5V15.409A10.486,10.486,0,0,1,15.409,4.909Zm20.045,5.727a1.909,1.909,0,1,0,1.909,1.909A1.909,1.909,0,0,0,35.455,10.636ZM24,13.5A10.5,10.5,0,1,0,34.5,24,10.514,10.514,0,0,0,24,13.5Zm0,1.909A8.591,8.591,0,1,1,15.409,24,8.576,8.576,0,0,1,24,15.409Z" transform="translate(-3 -3)" fill="#f8f4f4"/>
</svg>
