<svg xmlns="http://www.w3.org/2000/svg" width="61.581" height="76.087" viewBox="0 0 61.581 76.087">
  <g id="Grupo_6" data-name="Grupo 6" transform="translate(-1046.78 -1868.286)">
    <g id="Grupo_4" data-name="Grupo 4" transform="translate(1048.246 1868.724)">
      <g id="Grupo_3" data-name="Grupo 3">
        <path id="Caminho_8" data-name="Caminho 8" d="M5702.771,1555.725l-39.524,54.787h23.339l6.963,18.82,7.906-18.82h20.7l-11.1-22.584,1.505-4.81-25.234-.823Z" transform="translate(-5663.247 -1555.725)" fill="none" stroke="#fff" stroke-width="1.5"/>
        <path id="Caminho_9" data-name="Caminho 9" d="M5698.674,1614.117l-6.776-17.147-12.422-28.021,10.164,28.021,2.258,6.052,4.141,11.1h-11.1l8.359-14.121,5.381-9.09,17.692,6.064v1.659" transform="translate(-5674.395 -1564.349)" fill="none" stroke="#fff" stroke-width="1.5"/>
        <path id="Caminho_10" data-name="Caminho 10" d="M5759.31,1654.31l-6.587,15.683h-10.729" transform="translate(-5717.338 -1620.016)" fill="none" stroke="#fff" stroke-width="1.5"/>
        <path id="Caminho_11" data-name="Caminho 11" d="M5791.287,1667.04s15.622,5.018,7.341-16.938" transform="translate(-5751.197 -1617.272)" fill="none" stroke="#fff" stroke-width="1.5"/>
        <path id="Caminho_12" data-name="Caminho 12" d="M5799.875,1654.31l-6.851,15.516" transform="translate(-5752.391 -1620.016)" fill="none" stroke="#fff" stroke-width="1.5"/>
        <path id="Caminho_13" data-name="Caminho 13" d="M5738.388,1712.978h14.66" transform="translate(-5714.861 -1658.276)" fill="none" stroke="#fff" stroke-width="1.5"/>
        <g id="Polígono_1" data-name="Polígono 1" transform="translate(35.084 65.306) rotate(180)" fill="none">
          <path d="M4.431,0,8.862,8.844H0Z" stroke="none"/>
          <path d="M 4.431036472320557 3.34874439239502 L 2.42920970916748 7.344419479370117 L 6.432863235473633 7.344419479370117 L 4.431036472320557 3.34874439239502 M 4.431036472320557 -9.5367431640625e-07 L 8.862076759338379 8.844419479370117 L -3.814697265625e-06 8.844419479370117 L 4.431036472320557 -9.5367431640625e-07 Z" stroke="none" fill="#fff"/>
        </g>
        <path id="Caminho_14" data-name="Caminho 14" d="M5702.771,1555.725l-39.524,54.787h23.339l6.963,18.82,7.906-18.82h20.7l-11.1-22.584,1.505-4.81-25.234-.823Z" transform="translate(-5663.247 -1555.725)" fill="none" stroke="#fff" stroke-width="1.5"/>
      </g>
    </g>
  </g>
</svg>
