<svg xmlns="http://www.w3.org/2000/svg" width="42" height="42" viewBox="0 0 42 42">
  <path id="icons8-whatsapp" d="M23,2A20.912,20.912,0,0,0,4.725,33.234L2.034,42.841a.913.913,0,0,0,1.1,1.132l10.017-2.482A20.979,20.979,0,1,0,23,2Zm0,1.826A19.174,19.174,0,1,1,13.652,39.74a.913.913,0,0,0-.665-.089L4.215,41.824l2.352-8.392a.913.913,0,0,0-.091-.712A19.17,19.17,0,0,1,23,3.826Zm-7.631,8.217A2.9,2.9,0,0,0,13.261,13a7.112,7.112,0,0,0-2.131,5.063,10.767,10.767,0,0,0,2.386,6.058h0v0c-.024-.032.327.476.8,1.086a28.923,28.923,0,0,0,1.947,2.277A21.144,21.144,0,0,0,23.1,32.45,32.522,32.522,0,0,0,26.255,33.6a8.417,8.417,0,0,0,3.8.243,6.419,6.419,0,0,0,2.393-.988,4.437,4.437,0,0,0,1.971-2.136,7.532,7.532,0,0,0,.428-1.88,4.308,4.308,0,0,0,.009-.719,1.251,1.251,0,0,0-.2-.717c-.425-.7-.906-.716-1.409-.965-.279-.138-1.074-.526-1.871-.906s-1.485-.715-1.91-.867a2.152,2.152,0,0,0-1.068-.182,1.817,1.817,0,0,0-1.211.8c-.258.382-1.294,1.605-1.61,1.965,0,0,.023.01-.1-.052-.391-.193-.869-.358-1.576-.731a13.046,13.046,0,0,1-2.561-1.778v0a15.081,15.081,0,0,1-2.769-3.4c.021-.026,0,.005.043-.039l0,0c.326-.321.614-.7.858-.984a4.553,4.553,0,0,0,.663-1.077,2.019,2.019,0,0,0-.045-1.751v0c.013.026-.1-.23-.228-.526s-.286-.681-.457-1.091c-.342-.82-.724-1.74-.951-2.279v0a2.376,2.376,0,0,0-1.1-1.312,1.764,1.764,0,0,0-.908-.159h0C16.107,12.047,15.737,12.043,15.369,12.043Zm0,1.826c.352,0,.7,0,.99.018s.28.016.223-.011.021-.036.191.367c.222.528.606,1.451.949,2.274.171.411.332.8.46,1.1s.2.472.278.633v0l0,0c.079.156.072.056.045.111a2.658,2.658,0,0,1-.414.7c-.3.342-.6.723-.76.881a1.962,1.962,0,0,0-.551.772,1.766,1.766,0,0,0,.169,1.428,16.707,16.707,0,0,0,3.181,3.909,14.935,14.935,0,0,0,2.916,2.024c.811.428,1.471.678,1.619.751a2.051,2.051,0,0,0,1.18.255,1.778,1.778,0,0,0,1.075-.6l0,0c.326-.369,1.294-1.475,1.758-2.156.02.007.013,0,.168.057v0h0c.07.025.953.42,1.74.8s1.586.765,1.846.893c.375.185.552.306.6.307a2.14,2.14,0,0,1-.005.3A5.809,5.809,0,0,1,32.7,30.1a3.443,3.443,0,0,1-1.229,1.214,5.677,5.677,0,0,1-1.685.724,6.544,6.544,0,0,1-2.989-.178,30.516,30.516,0,0,1-2.989-1.09,19.514,19.514,0,0,1-6.227-4.54,27.139,27.139,0,0,1-1.824-2.135c-.438-.569-.629-.866-.788-1.075l0,0c-.283-.374-2.015-2.784-2.015-4.954a4.813,4.813,0,0,1,1.644-3.82A1.082,1.082,0,0,1,15.369,13.87Z" transform="translate(-2 -2)" fill="#fbf9f9"/>
</svg>
